<svg xmlns="http://www.w3.org/2000/svg" version="1.1" xmlns:xlink="http://www.w3.org/1999/xlink" xmlns:svgjs="http://svgjs.dev/svgjs" width="2000" height="1247" viewBox="0 0 2000 1247"><g transform="matrix(1,0,0,1,-1.2121212121212466,0.504858299595071)"><svg viewBox="0 0 396 247" data-background-color="#ffffff" preserveAspectRatio="xMidYMid meet" height="1247" width="2000" xmlns="http://www.w3.org/2000/svg" xmlns:xlink="http://www.w3.org/1999/xlink"><g id="tight-bounds" transform="matrix(1,0,0,1,0.2400000000000091,-0.09999999999999432)"><svg viewBox="0 0 395.52 247.2" height="247.2" width="395.52"><g><svg></svg></g><g><svg viewBox="0 0 395.52 247.2" height="247.2" width="395.52"><g mask="url(&quot;#ce770070-75c2-41d1-afd5-93f70c61572a&quot;)"><g><path xmlns="http://www.w3.org/2000/svg" d="M197.76 247.2l-114.039-247.2h228.078zM103.887 12.864l93.873 203.74 94.221-203.74z" fill="#ffffff" fill-rule="nonzero" stroke="none" stroke-width="1" stroke-linecap="butt" stroke-linejoin="miter" stroke-miterlimit="10" stroke-dasharray="" stroke-dashoffset="0" font-family="none" font-weight="none" font-size="none" text-anchor="none" style="mix-blend-mode: normal" data-fill-palette-color="tertiary"></path></g></g><g transform="matrix(1,0,0,1,0,63.96153340635267)"><svg viewBox="0 0 395.52 119.27693318729465" height="119.27693318729465" width="395.52"><g><svg viewBox="0 0 395.52000000000004 119.27693318729466" height="119.27693318729465" width="395.52"><g><svg viewBox="0 0 395.52000000000004 119.27693318729466" height="119.27693318729466" width="395.52000000000004"><g id="textblocktransform"><svg viewBox="0 0 395.52000000000004 119.27693318729466" height="119.27693318729466" width="395.52000000000004" id="textblock"><g><svg viewBox="0 0 395.52000000000004 119.27693318729466" height="119.27693318729466" width="395.52000000000004"><g transform="matrix(1,0,0,1,0,0)"><svg width="395.52000000000004" viewBox="-0.9000000953674316 -38.54999923706055 137.9399871826172 42.29999923706055" height="119.27693318729466" data-palette-color="#3d9970"><path d="M18.5 0.7L2.1-34.85 34.9-34.85 18.5 0.7ZM5-33L18.5-3.7 32.05-33 5-33ZM55.5-35.55L71.9 0 39.1 0 55.5-35.55ZM55.5-31.15L42-1.85 69-1.85 55.5-31.15ZM104.25-23.75L104.25-11Q104.25-7.8 102.67-5.1 101.09-2.4 98.4-0.83 95.7 0.75 92.5 0.75L92.5 0.75Q89.3 0.75 86.59-0.83 83.9-2.4 82.32-5.1 80.75-7.8 80.75-11L80.75-11 80.75-23.75Q80.75-26.95 82.32-29.65 83.9-32.35 86.59-33.93 89.3-35.5 92.5-35.5L92.5-35.5Q95.7-35.5 98.4-33.93 101.09-32.35 102.67-29.65 104.25-26.95 104.25-23.75L104.25-23.75ZM82.55-23.75L82.55-11Q82.55-9.3 83.2-7.5L83.2-7.5 100.84-29.05Q99.5-31.15 97.3-32.4 95.09-33.65 92.5-33.65L92.5-33.65Q89.8-33.65 87.52-32.33 85.25-31 83.9-28.73 82.55-26.45 82.55-23.75L82.55-23.75ZM102.45-11L102.45-23.75Q102.45-25.45 101.8-27.25L101.8-27.25 84.15-5.7Q85.5-3.55 87.7-2.3 89.9-1.05 92.5-1.05L92.5-1.05Q95.2-1.05 97.47-2.4 99.75-3.75 101.09-6.03 102.45-8.3 102.45-11L102.45-11ZM124.94-3.8Q124.94-5.65 126.27-6.98 127.59-8.3 129.49-8.3L129.49-8.3Q131.39-8.3 132.72-6.98 134.04-5.65 134.04-3.8L134.04-3.8Q134.04-1.95 132.72-0.6 131.39 0.75 129.49 0.75L129.49 0.75Q127.64 0.75 126.29-0.6 124.94-1.95 124.94-3.8L124.94-3.8Z" opacity="1" transform="matrix(1,0,0,1,0,0)" fill="#ffffff" class="undefined-text-0" data-fill-palette-color="primary" id="text-0"></path></svg></g></svg></g></svg></g></svg></g></svg></g></svg></g></svg></g><defs><mask id="ce770070-75c2-41d1-afd5-93f70c61572a"><rect width="395.52" height="247.2" fill="white"></rect><g transform="matrix(1,0,0,1,0,63.96153340635267)" id="clone"><svg viewBox="0 0 395.52 119.27693318729465" height="119.27693318729465" width="395.52"><g><svg viewBox="0 0 395.52000000000004 119.27693318729466" height="119.27693318729465" width="395.52"><g><svg viewBox="0 0 395.52000000000004 119.27693318729466" height="119.27693318729466" width="395.52000000000004"><g id="SvgjsG1300"><svg viewBox="0 0 395.52000000000004 119.27693318729466" height="119.27693318729466" width="395.52000000000004" id="SvgjsSvg1299"><g><svg viewBox="0 0 395.52000000000004 119.27693318729466" height="119.27693318729466" width="395.52000000000004"><g transform="matrix(1,0,0,1,0,0)"><svg width="395.52000000000004" viewBox="-0.9000000953674316 -38.54999923706055 137.9399871826172 42.29999923706055" height="119.27693318729466" data-palette-color="#3d9970"><path d="M18.5 0.7L2.1-34.85 34.9-34.85 18.5 0.7ZM5-33L18.5-3.7 32.05-33 5-33ZM55.5-35.55L71.9 0 39.1 0 55.5-35.55ZM55.5-31.15L42-1.85 69-1.85 55.5-31.15ZM104.25-23.75L104.25-11Q104.25-7.8 102.67-5.1 101.09-2.4 98.4-0.83 95.7 0.75 92.5 0.75L92.5 0.75Q89.3 0.75 86.59-0.83 83.9-2.4 82.32-5.1 80.75-7.8 80.75-11L80.75-11 80.75-23.75Q80.75-26.95 82.32-29.65 83.9-32.35 86.59-33.93 89.3-35.5 92.5-35.5L92.5-35.5Q95.7-35.5 98.4-33.93 101.09-32.35 102.67-29.65 104.25-26.95 104.25-23.75L104.25-23.75ZM82.55-23.75L82.55-11Q82.55-9.3 83.2-7.5L83.2-7.5 100.84-29.05Q99.5-31.15 97.3-32.4 95.09-33.65 92.5-33.65L92.5-33.65Q89.8-33.65 87.52-32.33 85.25-31 83.9-28.73 82.55-26.45 82.55-23.75L82.55-23.75ZM102.45-11L102.45-23.75Q102.45-25.45 101.8-27.25L101.8-27.25 84.15-5.7Q85.5-3.55 87.7-2.3 89.9-1.05 92.5-1.05L92.5-1.05Q95.2-1.05 97.47-2.4 99.75-3.75 101.09-6.03 102.45-8.3 102.45-11L102.45-11ZM124.94-3.8Q124.94-5.65 126.27-6.98 127.59-8.3 129.49-8.3L129.49-8.3Q131.39-8.3 132.72-6.98 134.04-5.65 134.04-3.8L134.04-3.8Q134.04-1.95 132.72-0.6 131.39 0.75 129.49 0.75L129.49 0.75Q127.64 0.75 126.29-0.6 124.94-1.95 124.94-3.8L124.94-3.8Z" opacity="1" transform="matrix(1,0,0,1,0,0)" fill="#ffffff" class="undefined-text-0" data-fill-palette-color="primary" id="SvgjsPath1298" stroke-width="5" stroke="black" stroke-linejoin="round"></path></svg></g></svg></g></svg></g></svg></g></svg></g></svg></g></mask></defs></svg><rect width="395.52" height="247.2" fill="none" stroke="none" visibility="hidden"></rect></g></svg></g></svg>